<svg version="1.1" id="Layer_1" xmlns="http://www.w3.org/2000/svg" xmlns:xlink="http://www.w3.org/1999/xlink" x="0px" y="0px"
	 width="100%" viewBox="0 0 1024 848" enable-background="new 0 0 1024 848" xml:space="preserve">
<path fill="#000000" opacity="1.000000" stroke="none" 
	d="
M413.034607,561.912598 
	C411.945648,560.618042 410.678345,559.695374 410.379333,558.525208 
	C407.247681,546.268799 401.494476,534.494812 403.174500,521.328430 
	C403.492157,518.838867 402.082458,516.864014 401.623962,514.615417 
	C399.347351,503.450226 400.432434,492.167603 400.074707,480.946991 
	C399.932953,476.500427 398.779449,474.744720 394.149780,476.349457 
	C390.743439,477.530151 386.911682,477.593079 385.329376,481.860748 
	C384.595032,483.841431 382.037415,483.009766 380.461365,483.907715 
	C374.596893,487.248932 368.591980,490.324219 362.743500,493.717194 
	C355.366089,497.997192 347.310638,501.168549 339.114624,503.825714 
	C330.511871,506.614777 321.956177,509.560547 313.452759,512.639099 
	C309.567291,514.045776 306.764252,516.758240 305.053009,520.698608 
	C303.743469,523.714050 302.113464,526.646545 300.227020,529.336121 
	C298.889862,531.242554 296.850006,532.635132 294.186554,531.987854 
	C291.547150,531.346558 290.539520,529.267578 289.952789,526.915955 
	C289.713531,525.956970 289.493134,524.919373 289.606995,523.958069 
	C290.505524,516.371765 289.019073,516.255066 282.225677,516.902100 
	C277.859772,517.317932 273.745575,517.065491 269.518829,516.295471 
	C263.023560,515.112183 256.301941,515.910767 249.897629,513.510437 
	C239.003510,509.427368 228.354324,504.846252 219.351044,497.397858 
	C216.481659,495.024017 213.163391,493.223358 210.753174,490.012726 
	C201.658615,477.897827 197.043320,464.500366 195.604965,449.381470 
	C194.617126,438.998199 195.155350,428.803223 197.255737,418.948395 
	C199.252472,409.579895 202.380402,400.277283 208.422287,392.173981 
	C212.009781,387.362427 213.906937,381.296967 216.608353,375.817108 
	C222.701859,363.456207 231.857193,353.163513 239.491913,341.844879 
	C248.076447,329.118042 258.131256,317.576660 267.702972,305.662354 
	C276.531677,294.672974 286.488953,284.645569 296.798309,274.968262 
	C302.397095,269.712769 309.311493,266.254944 314.801056,261.097351 
	C322.140930,254.201370 331.426208,249.962784 338.482513,242.760086 
	C340.281555,240.923706 343.066620,240.373764 345.318329,238.932480 
	C354.035675,233.352676 363.147308,228.388824 372.113678,223.198303 
	C372.401520,223.031647 372.780518,222.694839 372.993164,222.773254 
	C379.827911,225.293655 383.248627,219.034912 388.289948,216.936234 
	C394.081116,214.525345 400.269592,213.066101 405.579071,209.516464 
	C407.373413,208.316864 409.039429,207.151489 410.298157,205.216690 
	C413.103668,200.904343 421.000366,201.318298 422.662964,206.205383 
	C424.408142,211.335236 428.480560,213.568237 432.382324,215.743912 
	C436.098511,217.816101 437.380676,220.287170 436.941650,224.158325 
	C429.898621,225.710602 424.196899,237.050110 425.827271,244.802902 
	C426.718903,249.042786 424.888458,251.763184 420.019196,252.771149 
	C415.789185,253.646774 414.990479,250.590530 414.493347,247.447113 
	C413.656158,242.153183 415.541565,236.532349 412.135559,231.485336 
	C411.077850,229.918045 410.515564,228.359482 408.420105,228.001846 
	C403.357849,227.137817 398.396759,223.924179 393.256165,228.376846 
	C391.816589,229.623825 389.458221,226.989746 387.102478,227.948929 
	C375.333740,232.740784 363.986145,237.936981 353.655273,245.780457 
	C345.270874,252.146118 336.307098,257.942017 327.472565,263.803406 
	C318.610809,269.682922 311.116119,277.278168 302.891541,283.940582 
	C296.526093,289.096954 291.380951,295.381836 286.030579,301.283539 
	C279.999481,307.936096 274.057617,314.881500 268.643799,322.200531 
	C265.033813,327.080841 261.144806,331.954895 257.735840,336.886139 
	C254.477249,341.599792 249.984375,345.173248 247.168625,350.272064 
	C243.439224,357.025269 238.338577,363.014343 234.511795,369.722351 
	C229.363571,378.746796 222.012924,386.453430 218.371155,396.331970 
	C214.655930,406.409851 210.264297,416.296997 208.678589,427.045990 
	C208.340302,429.339142 208.002396,431.705627 208.201126,433.991669 
	C208.934036,442.422913 208.125885,451.024963 210.324097,459.272034 
	C211.526184,463.781952 213.447464,468.083191 215.476044,472.400909 
	C219.708405,481.409302 227.241302,486.677948 234.406982,492.417603 
	C240.165009,497.029755 246.562714,500.817047 254.439865,500.992828 
	C256.326019,501.034912 258.526520,501.000244 260.122253,502.487762 
	C261.994629,504.233154 264.478516,504.660248 266.662109,504.476990 
	C274.138153,503.849548 281.546570,505.035950 288.999359,504.902191 
	C293.129669,504.828033 294.772675,503.331177 293.187469,499.499847 
	C291.827454,496.212860 292.357544,494.128784 295.262146,491.894989 
	C297.596527,490.099701 298.702271,487.213531 299.071533,484.026306 
	C299.758820,478.094360 301.073029,472.386047 303.954163,466.914856 
	C305.525879,463.930237 305.207733,459.871094 305.420593,456.277527 
	C305.566711,453.810822 303.695526,452.604919 301.507050,452.667480 
	C297.698181,452.776459 293.088196,452.025940 290.268799,453.865417 
	C284.598175,457.565186 280.632385,454.328857 276.142639,452.340240 
	C275.102966,451.879761 274.345215,450.742065 273.295715,450.352173 
	C269.980103,449.120392 269.273804,446.568481 269.687683,443.527130 
	C270.107941,440.438904 272.454132,438.727722 275.161224,438.446014 
	C281.604126,437.775665 286.976837,434.125549 293.073822,432.555084 
	C295.677338,431.884460 298.246613,431.525909 300.938385,431.471313 
	C306.698517,431.354523 313.202423,428.380249 314.221588,420.533264 
	C315.578033,410.089508 319.139771,400.031860 322.069550,390.043182 
	C325.888550,377.022919 329.857758,363.906219 335.263550,351.232758 
	C339.103973,342.229065 343.199585,333.150543 346.351624,323.707947 
	C350.152618,312.321320 356.707642,301.877991 361.661011,290.842499 
	C364.358704,284.832367 367.319733,279.045380 371.111664,273.676971 
	C373.106934,270.852173 374.819397,267.192780 378.963104,267.726349 
	C382.944824,268.239014 385.225220,270.963287 385.931152,275.126129 
	C386.219025,276.823334 387.608582,278.315491 388.398407,279.948608 
	C394.249817,292.047424 397.288483,304.927704 399.370361,318.138123 
	C400.289001,323.967102 402.071014,329.669678 403.615326,335.387970 
	C405.581482,342.667969 405.575317,350.155884 406.443237,357.551788 
	C407.554382,367.019867 409.532227,376.404938 409.865784,385.976044 
	C410.002838,389.908813 410.951263,393.818085 409.648804,397.824799 
	C408.840607,400.311005 410.468658,402.353363 412.662445,403.565308 
	C416.149628,405.491852 419.610657,407.554291 423.300568,409.005432 
	C429.484009,411.437103 431.519714,416.287354 432.555634,422.304840 
	C434.292999,432.396545 434.613678,442.694427 437.441101,452.651184 
	C438.333191,455.792786 435.700775,459.207123 436.260101,462.806946 
	C436.592468,464.946106 436.615967,466.780823 439.382202,466.967041 
	C441.749176,467.126343 443.644440,466.709625 444.610016,464.199249 
	C447.001190,457.982513 449.921936,451.924438 451.745300,445.549561 
	C453.033295,441.046570 452.882721,436.130493 453.358459,431.397217 
	C454.196167,423.061981 460.397522,418.623993 466.398193,414.406677 
	C468.421417,412.984741 470.997467,413.790710 472.830475,417.263672 
	C475.586548,422.485413 474.084473,426.910828 473.425842,432.016907 
	C472.815369,436.749390 470.516083,441.673553 473.110809,446.823517 
	C473.914459,448.418610 472.304810,451.211853 471.848053,453.466248 
	C471.563293,454.871643 471.889343,456.136078 473.079254,457.033112 
	C474.400940,458.029572 475.894043,457.667816 476.658691,456.565369 
	C480.768524,450.640106 488.436005,449.361603 492.876465,443.832581 
	C499.412994,435.693726 505.829102,427.646881 500.629822,416.252808 
	C500.061615,415.007690 499.509125,413.159332 500.737976,412.562317 
	C504.751770,410.612274 507.124084,406.816925 510.562927,404.388519 
	C513.900208,402.031860 518.981384,405.279968 519.222961,409.602295 
	C519.398376,412.738831 519.395935,415.933228 517.886841,418.896271 
	C517.288086,420.071899 516.833008,421.356476 516.537537,422.643158 
	C515.959778,425.158630 515.818237,427.977112 517.959656,429.590637 
	C519.876404,431.034851 522.168274,429.407745 523.996033,428.414520 
	C529.517029,425.414307 535.013000,422.343536 540.317444,418.982574 
	C542.165039,417.811859 543.637695,417.282471 545.137634,418.876648 
	C546.840271,420.686310 544.838745,421.734711 543.997131,423.054230 
	C542.090210,426.043762 539.683777,428.025696 536.304871,429.580719 
	C533.375671,430.928772 531.070557,434.002502 528.955505,436.681366 
	C522.321777,445.083435 516.577393,446.608246 506.881989,441.678040 
	C504.211182,448.620667 497.292297,452.063995 493.494629,458.485840 
	C489.778473,464.769836 482.888702,468.312622 476.999573,472.494263 
	C474.155426,474.513824 470.475372,472.291016 467.298553,471.663239 
	C464.183197,471.047546 461.590332,471.881592 460.298584,474.119781 
	C458.534363,477.176758 455.950623,478.502350 453.017029,479.641296 
	C447.873932,481.638153 444.154419,485.892059 439.098022,488.171997 
	C436.108459,489.519958 435.817902,493.298157 435.577240,496.530212 
	C434.918823,505.373047 433.577454,514.216003 433.643219,523.050415 
	C433.752777,537.776855 430.539825,552.244446 431.243713,567.040527 
	C431.808746,578.917114 430.744263,590.866943 430.525635,602.786499 
	C430.339844,612.914734 430.685150,623.064575 430.162018,633.172058 
	C429.272400,650.359863 430.719452,667.638000 428.312775,684.744568 
	C427.501587,690.510498 424.086243,692.334778 419.817291,690.203430 
	C418.632446,689.611877 417.727783,688.764587 418.001587,687.544922 
	C419.110229,682.606628 416.937286,678.129883 416.363922,673.434814 
	C415.051300,662.686707 415.337280,651.854309 417.052246,641.161072 
	C417.846802,636.206787 418.044312,631.053040 417.336426,626.437744 
	C416.039673,617.982971 416.896149,609.553955 416.158112,601.129456 
	C415.340729,591.800232 416.223663,582.270203 416.982910,572.877502 
	C417.338593,568.476990 416.511597,565.064697 413.034607,561.912598 
M384.913666,316.385071 
	C383.630981,307.678375 379.646576,300.135620 375.805359,291.699188 
	C373.659729,294.462952 376.317810,295.578888 375.119415,297.255554 
	C367.321350,299.630188 366.169037,306.217377 365.354370,313.525604 
	C360.222778,314.711517 361.317291,320.016602 359.447815,323.327454 
	C359.990051,325.125458 362.862732,324.126862 362.375702,326.496429 
	C362.104370,327.816345 361.106873,328.338501 360.007782,328.827911 
	C354.097931,331.459473 351.790009,335.375824 352.106598,342.168304 
	C360.704529,342.526184 359.057556,342.501617 362.384766,349.408905 
	C363.138947,350.974548 364.461029,351.302002 365.851471,351.910767 
	C369.936615,353.699280 372.196686,356.424713 370.734589,361.348328 
	C369.842499,364.352417 369.021729,367.403229 368.235321,370.416779 
	C367.220245,374.306763 364.093597,378.194031 365.968018,382.297882 
	C367.596680,385.863556 366.386566,387.186066 363.556610,388.937256 
	C361.397614,390.273254 366.101685,394.738586 361.171021,395.572144 
	C358.798004,394.525696 360.882599,390.146118 356.369507,390.152985 
	C352.352386,399.581604 347.995178,409.182983 344.203064,419.002563 
	C342.583710,423.195862 346.125397,423.452332 348.832275,422.748383 
	C355.954376,420.896179 363.147339,419.870239 370.481812,419.346863 
	C373.903473,419.102661 377.202667,417.863892 380.149261,415.671692 
	C383.427704,413.232513 386.860443,411.071838 391.286926,410.722626 
	C394.507782,410.468506 395.950134,407.817841 395.965118,404.597534 
	C395.982849,400.778168 395.306641,396.998199 395.035187,393.234833 
	C394.085876,380.074463 393.956055,366.899963 392.071838,353.753387 
	C390.305939,341.432220 387.369415,329.392212 384.913666,316.385071 
M320.659668,501.205597 
	C321.788483,501.356995 323.501526,502.727448 323.673126,500.444733 
	C323.865509,497.885620 325.742371,497.690186 327.386566,497.105225 
	C335.392700,494.257019 343.580627,492.218414 350.780884,487.050018 
	C358.859680,481.250977 369.151245,479.547241 377.598572,473.997803 
	C382.538666,470.752441 387.668823,467.665955 393.014832,464.952087 
	C398.653809,462.089417 398.753479,456.492737 397.562012,450.983276 
	C396.746002,447.210114 398.513824,442.189301 393.101135,440.471588 
	C388.988831,439.166534 384.792664,437.882874 380.495697,440.028137 
	C379.186859,440.681610 378.017120,441.699280 376.357239,441.537201 
	C370.019928,440.918396 363.641907,440.247437 359.946686,447.406372 
	C358.176208,445.211487 356.730774,443.647430 355.549683,441.904297 
	C353.557861,438.964661 351.170746,437.427826 347.536957,438.811310 
	C344.742981,439.875061 341.847107,440.692169 339.110870,441.881927 
	C334.634796,443.828156 334.151031,446.683868 337.843109,450.402191 
	C333.739563,451.007935 329.970215,451.913025 331.464722,457.334869 
	C331.558472,457.674957 330.386169,458.227600 330.254150,458.787720 
	C329.060608,463.850800 324.715546,467.269653 323.463226,472.374146 
	C321.545746,480.190033 319.503510,487.976807 316.013855,495.331818 
	C314.361298,498.814789 315.894379,501.064880 320.659668,501.205597 
M419.044159,526.009277 
	C419.195251,521.867310 419.672729,517.706116 419.430634,513.587219 
	C418.899506,504.549774 423.156555,495.973297 421.828247,486.915771 
	C420.664246,478.978516 420.429749,471.026764 420.948303,463.032776 
	C421.032837,461.729614 421.037262,460.308563 419.430237,459.601074 
	C414.274994,460.386902 415.462341,464.429016 414.471588,467.995667 
	C411.787567,477.658020 411.954315,487.534210 412.778534,497.065277 
	C413.760498,508.420654 414.180054,519.815002 415.272522,531.156921 
	C415.409241,532.576172 414.770508,534.224426 417.013092,535.322876 
	C419.707062,533.024475 418.490173,529.597717 419.044159,526.009277 
M337.362976,375.711151 
	C334.569305,380.895538 334.961304,386.391968 336.389679,391.793762 
	C334.289703,392.578003 331.837494,391.513550 331.520508,394.223206 
	C331.187622,397.069000 329.999115,399.534363 328.787720,402.106628 
	C326.961487,405.984619 327.695709,409.898865 329.635590,411.157684 
	C338.489288,402.125946 339.269135,389.719391 343.248322,378.637451 
	C343.861847,376.928741 344.210358,375.109558 344.527557,373.314270 
	C344.814789,371.688446 345.199188,369.829620 342.915558,369.256897 
	C340.832306,368.734344 339.348114,369.623199 338.605621,371.633667 
	C338.203857,372.721710 337.906219,373.848206 337.362976,375.711151 
M413.534546,437.116638 
	C412.265991,440.331360 411.756439,443.576599 412.846710,447.065399 
	C415.920929,446.313446 418.278900,444.926758 418.386993,441.922394 
	C418.480499,439.323730 417.200745,437.128571 413.534546,437.116638 
M324.998718,417.863525 
	C323.765350,420.024628 324.312531,421.695221 326.234467,423.268097 
	C328.589355,418.567291 328.535645,418.263672 324.998718,417.863525 
z"/>
<path fill="#000000" opacity="1.000000" stroke="none" 
	d="
M551.704590,327.297150 
	C552.194397,322.862823 552.372192,318.923889 551.229187,314.981323 
	C550.508240,312.494659 550.806763,310.378906 554.044250,309.752319 
	C556.847900,309.209686 559.228577,308.879852 560.487183,312.340515 
	C564.111511,322.306366 566.182068,332.718353 566.964172,343.134155 
	C567.804016,354.318146 568.609436,365.504761 569.880981,376.644928 
	C570.322205,380.510925 569.467712,384.542664 570.912415,388.312836 
	C574.081726,388.481812 574.537659,385.110809 577.288025,384.564575 
	C587.160645,382.603699 595.292603,388.729431 597.639893,398.619232 
	C598.956116,404.164581 598.089355,409.186523 597.244934,414.249268 
	C596.301270,419.907257 590.486694,421.547272 586.251526,424.004730 
	C583.545471,425.574921 580.146484,426.450317 576.690552,426.489868 
	C572.934937,426.532776 571.580627,428.854919 573.044983,432.223114 
	C573.884583,434.154358 573.827637,435.378967 572.620972,437.167999 
	C569.882812,441.227631 571.983337,445.915924 571.502991,450.307373 
	C570.446350,459.967804 573.440552,469.741608 570.885864,479.354736 
	C569.956299,482.852631 572.145447,484.594604 574.194092,486.533417 
	C576.046082,488.286133 578.064697,487.923187 580.221252,487.057434 
	C593.126892,481.876556 606.277954,477.240234 618.914490,471.474030 
	C632.595215,465.231323 646.617493,459.682648 659.993713,452.878021 
	C668.830627,448.382507 678.085632,444.580139 686.524780,439.615540 
	C693.042297,435.781433 700.440186,433.516937 706.335327,428.613647 
	C711.894958,423.989410 719.201538,422.442352 724.981995,418.120483 
	C726.892456,416.692078 728.590881,415.577698 729.332458,413.059296 
	C730.285950,409.820984 732.671021,409.711670 735.217773,411.482574 
	C740.854736,415.402161 741.442749,419.583191 737.017944,424.951630 
	C736.152832,426.001282 735.591736,427.122528 734.960632,428.288177 
	C732.546143,432.748016 729.482727,435.963776 723.590088,435.324921 
	C716.404541,434.545898 711.454163,439.766235 705.882690,443.052612 
	C703.519836,444.446381 701.666687,445.976013 698.592224,446.470520 
	C693.832703,447.236053 689.698730,450.151398 688.237854,455.334961 
	C687.687622,457.287231 686.562073,458.488434 684.591797,459.705658 
	C682.236145,454.583191 678.979980,457.153870 675.671692,458.511139 
	C661.045349,464.512024 647.269836,472.353851 632.517334,478.119720 
	C622.720886,481.948517 613.317017,486.774048 603.680359,491.024078 
	C600.912964,492.244537 599.198669,497.278229 594.928955,493.088837 
	C592.786682,496.397308 592.177673,501.102386 588.348694,501.708221 
	C583.286438,502.509186 580.366150,506.300995 576.301147,508.381744 
	C574.065186,509.526276 571.996582,511.232117 571.874939,513.432617 
	C571.591309,518.562805 569.313293,523.382812 569.945496,528.646851 
	C570.300415,531.602417 569.953857,534.680908 568.480774,537.384216 
	C567.104187,539.910278 565.363037,542.565857 562.064758,542.075073 
	C558.504944,541.545471 557.262939,538.309448 557.272766,535.328308 
	C557.286926,531.030701 556.907043,526.776489 556.763672,522.501221 
	C556.492737,514.424866 551.279968,510.859467 543.832886,514.056335 
	C533.281372,518.585876 522.512329,522.480469 511.539307,525.835754 
	C509.931793,526.327332 508.430725,526.987915 507.326324,528.361328 
	C506.341370,529.586182 504.918549,530.073364 503.454041,530.489990 
	C499.752930,531.542725 496.120819,532.125427 493.753723,528.106750 
	C492.137787,525.363281 493.941406,520.215698 497.782227,518.377380 
	C501.241760,516.721558 503.978638,514.749512 505.923706,511.427826 
	C506.740540,510.032898 508.403107,508.870819 510.166168,509.291901 
	C513.001770,509.969208 515.350281,508.560699 517.926086,508.094910 
	C521.552063,507.439209 524.965820,503.688324 529.015137,507.267273 
	C529.706543,507.878326 544.981384,499.918762 545.281372,498.845276 
	C546.064575,496.042755 547.188782,493.503937 546.839661,490.218323 
	C546.383850,485.928070 548.580444,481.595642 550.675720,477.926910 
	C553.098206,473.685333 554.494690,469.691315 554.103760,464.776184 
	C553.872742,461.872345 554.857849,458.872681 555.287903,455.914856 
	C555.430298,454.935577 556.020691,453.611694 555.599304,453.026093 
	C552.688049,448.980225 554.768188,445.458130 555.822449,441.384521 
	C557.610596,434.474945 556.793884,427.228363 556.296387,420.092438 
	C555.721497,411.846588 554.902222,403.587738 556.302917,395.317902 
	C556.599609,393.566254 556.273987,391.702545 556.183105,389.893066 
	C555.627747,378.835266 555.806030,367.672760 554.267700,356.752502 
	C552.906494,347.090363 551.979675,337.472656 551.704590,327.297150 
M576.368408,398.074707 
	C575.806946,400.322083 575.200623,402.559448 574.694031,404.819122 
	C573.810120,408.761566 576.196472,411.960480 578.610474,413.915497 
	C581.425171,416.195007 582.814819,411.931366 584.845642,410.578857 
	C585.651062,410.042450 586.315857,409.205627 586.861328,408.383881 
	C589.002136,405.158234 587.800964,401.265076 583.884827,397.380096 
	C581.345093,394.860565 579.095459,394.650879 576.368408,398.074707 
z"/>
<path fill="#000000" opacity="1.000000" stroke="none" 
	d="
M800.517700,313.301697 
	C798.057678,314.761200 795.805115,315.842865 793.676331,317.129425 
	C791.552368,318.413177 789.666260,318.708832 787.752991,315.482025 
	C787.346863,319.735748 785.220093,320.293671 782.258911,320.837555 
	C773.672241,322.414642 765.463562,325.413513 757.660217,329.340942 
	C749.587463,333.403992 741.660461,337.755554 733.637207,341.918335 
	C730.116943,343.744843 728.236816,347.857819 723.104553,347.681488 
	C717.875732,347.501831 714.232361,345.594696 711.184265,341.780029 
	C710.356506,340.744141 709.750183,339.527557 708.897278,338.516174 
	C704.835327,333.699524 701.844116,334.018738 699.489014,339.888580 
	C696.405640,347.573608 689.742737,352.516907 684.970032,358.860870 
	C681.321411,363.710754 677.864075,369.705170 671.106201,371.981232 
	C668.489136,372.862671 666.215637,374.434814 663.799194,372.383240 
	C661.334900,370.291016 658.262390,368.334137 659.373962,364.193268 
	C659.718079,362.911560 659.947205,361.588226 660.101440,360.269043 
	C660.291260,358.645538 659.463684,357.781372 657.842285,357.648071 
	C655.391418,357.446564 648.909302,361.700195 648.983459,364.035919 
	C649.119629,368.324371 647.450806,372.496765 648.717712,376.873779 
	C650.405029,382.702850 648.067993,388.902374 650.243530,394.851227 
	C651.242859,397.583771 652.879089,400.363708 651.284851,403.864746 
	C649.712097,407.318695 647.673828,407.161530 645.509827,405.456970 
	C643.471191,403.851105 641.501831,401.837524 640.594788,399.265106 
	C637.998840,391.902618 635.725037,384.445038 635.457947,376.555267 
	C635.288879,371.564880 633.251221,369.715759 628.937561,372.182800 
	C623.301819,375.406006 616.632019,377.477142 612.550720,383.347290 
	C613.273804,383.988434 613.578918,384.422638 613.993652,384.598694 
	C615.884460,385.401276 618.985840,385.425354 618.254272,388.391846 
	C617.538147,391.295563 614.407471,391.707550 612.031494,391.118469 
	C608.537598,390.252228 605.048035,388.933502 601.912903,387.173065 
	C598.540894,385.279541 598.710999,375.646637 602.563660,373.457306 
	C607.520447,370.640533 610.590698,366.438721 613.680420,362.071014 
	C615.031067,360.161652 616.589722,359.637360 618.836853,360.172729 
	C620.423584,360.550751 622.190979,360.822784 623.757996,360.520874 
	C631.334290,359.061157 636.071899,357.134705 632.617310,347.570709 
	C631.318481,343.974884 631.113159,339.942017 632.423767,336.285095 
	C634.848022,329.520813 635.207092,322.735992 633.981812,315.723999 
	C633.397949,312.382782 634.378479,309.097778 635.492676,305.995239 
	C636.480042,303.246155 638.658691,301.570251 641.749878,302.268066 
	C646.186768,303.269623 648.880005,306.431183 648.832947,310.760315 
	C648.797729,314.006134 649.397705,316.437592 652.415283,318.594116 
	C648.106567,321.291351 647.422302,324.877045 648.031433,329.363007 
	C648.760498,334.731873 645.793457,339.991241 647.191895,345.586487 
	C648.081909,349.147217 649.089539,350.389404 652.954590,348.758942 
	C659.178711,346.133301 665.225525,343.138031 670.813416,339.471161 
	C674.312561,337.174988 677.107117,333.650391 679.791382,330.332062 
	C681.155151,328.646179 682.641663,327.104858 684.091187,325.522186 
	C686.373657,323.030182 688.671570,323.037720 690.694824,325.872467 
	C692.612732,328.559509 694.710999,329.086670 697.363892,326.823364 
	C704.114441,321.064301 707.026550,321.235870 713.834106,327.692352 
	C714.312256,328.145844 714.639465,328.754486 715.093323,329.238037 
	C722.474792,337.102234 722.627441,337.449036 732.436096,333.212952 
	C739.790039,330.037018 747.240967,327.034668 754.486816,323.533020 
	C759.013977,321.345184 763.394897,317.998108 769.315735,317.812500 
	C771.921082,317.730804 775.669067,314.914581 778.858704,314.712036 
	C785.725403,314.276062 790.278320,311.182098 793.899109,305.623627 
	C795.267761,303.522552 798.271973,303.825134 800.382874,304.507172 
	C802.783569,305.282745 802.161133,307.787292 801.887573,309.724701 
	C801.728638,310.850769 801.162415,311.919312 800.517700,313.301697 
M687.515076,343.171478 
	C682.725342,343.182129 681.444458,345.295929 683.135315,350.399384 
	C689.853699,349.260620 690.285034,348.648956 687.515076,343.171478 
z"/>
<path fill="#000000" opacity="1.000000" stroke="none" 
	d="
M563.156616,310.511261 
	C564.406921,308.949799 565.504822,307.508850 567.372864,308.920471 
	C568.405762,309.701019 568.526794,310.850616 568.060486,312.031647 
	C567.550354,313.323730 566.754883,314.416718 565.231506,314.359741 
	C562.894348,314.272217 562.833740,312.596710 563.156616,310.511261 
z"/>
</svg>